<?xml version="1.0" encoding="UTF-8"?>
<svg id="Layer_1" data-name="Layer 1" xmlns="http://www.w3.org/2000/svg" viewBox="0 0 805 800">
  <path d="M450.32,205c8.02,0,16.05,3.06,22.17,9.18,12.24,12.24,12.24,32.09,0,44.34l-141.48,141.48,141.48,141.48c12.24,12.24,12.24,32.09,0,44.34-12.24,12.24-32.09,12.24-44.34,0l-163.65-163.65c-5.88-5.88-9.18-13.85-9.18-22.17s3.3-16.29,9.18-22.17l163.65-163.65c6.12-6.12,14.14-9.18,22.17-9.18Z" style="fill: #c4c4c4; stroke-width: 0px;"/>
  <path d="M402.5,28c50.21,0,98.93,9.84,144.81,29.24,44.3,18.74,84.08,45.56,118.24,79.71,34.16,34.16,60.98,73.94,79.71,118.24,19.4,45.88,29.24,94.6,29.24,144.81s-9.84,98.93-29.24,144.81c-18.74,44.3-45.56,84.08-79.71,118.24-34.16,34.16-73.94,60.98-118.24,79.71-45.88,19.4-94.6,29.24-144.81,29.24s-98.93-9.84-144.81-29.24c-44.3-18.74-84.08-45.56-118.24-79.71-34.16-34.16-60.98-73.94-79.71-118.24-19.4-45.88-29.24-94.6-29.24-144.81s9.84-98.93,29.24-144.81c18.74-44.3,45.56-84.08,79.71-118.24,34.16-34.16,73.94-60.98,118.24-79.71,45.88-19.4,94.6-29.24,144.81-29.24ZM402.5,726c179.76,0,326-146.24,326-326S582.26,74,402.5,74,76.5,220.24,76.5,400s146.24,326,326,326Z" style="fill: #c4c4c4; stroke-width: 0px;"/>
</svg>